<?xml version="1.0" encoding="UTF-8"?>
<svg width="176px" height="172px" viewBox="0 0 176 172" version="1.1" xmlns="http://www.w3.org/2000/svg" xmlns:xlink="http://www.w3.org/1999/xlink">
    <title>wifi-off@1x</title>
    <defs>
        <linearGradient x1="50%" y1="50%" x2="50%" y2="312.642191%" id="linearGradient-1">
            <stop stop-color="#CFD9F7" offset="0%"></stop>
            <stop stop-color="#CDEFF5" offset="100%"></stop>
        </linearGradient>
    </defs>
    <g id="Login-1.0" stroke="none" stroke-width="1" fill="none" fill-rule="evenodd">
        <g id="00.2-No-Network" transform="translate(-107.000000, -250.000000)" fill-rule="nonzero">
            <g id="wifi-off" transform="translate(107.000000, 250.500000)">
                <path d="M88,125.5 C97.9411255,125.5 106,133.558875 106,143.5 C106,153.441125 97.9411255,161.5 88,161.5 C78.0588745,161.5 70,153.441125 70,143.5 C70,133.558875 78.0588745,125.5 88,125.5 Z M37,92.2653123 C64.8906809,64.5782292 110.109319,64.5782292 138,92.2653123 L138,92.2653123 L118.9311,110.5 C110.596504,102.223484 99.2908806,97.5735787 87.5022318,97.5735787 C75.7135831,97.5735787 64.4079597,102.223484 56.0733637,110.5 L56.0733637,110.5 Z M88,18.5 C121.006919,18.5 152.661775,31.6612052 176,55.087943 L176,55.087943 L154.666667,76.5 C136.986841,58.7512456 113.005647,48.7797891 88,48.7797891 C62.9943531,48.7797891 39.0131588,58.7512456 21.3333333,76.5 L21.3333333,76.5 L0,55.087943 C23.3382254,31.6612052 54.9930811,18.5 88,18.5 Z" id="Combined-Shape" fill="url(#linearGradient-1)"></path>
                <path d="M8.44512987,170.5 C6.64720618,170.5 5.02648801,169.409993 4.33850434,167.739086 C3.65052067,166.068179 4.03071154,164.144928 5.30184366,162.865895 L165.356021,1.86543148 C166.472286,0.702844523 168.125305,0.236587125 169.67974,0.64586569 C171.234175,1.05514425 172.448119,2.27626551 172.854992,3.83989052 C173.261865,5.40351553 172.798348,7.06630784 171.642594,8.1891719 L11.5884161,169.189635 C10.7548329,170.0284 9.62417259,170.5 8.44512987,170.5 Z" id="Path" fill="#738498"></path>
            </g>
        </g>
    </g>
</svg>