<?xml version="1.0" encoding="UTF-8"?>
<svg width="100px" height="100px" viewBox="0 0 100 100" version="1.1" xmlns="http://www.w3.org/2000/svg" xmlns:xlink="http://www.w3.org/1999/xlink">
    <title>stack</title>
    <g id="Profile-1.0" stroke="none" stroke-width="1" fill="none" fill-rule="evenodd">
        <g id="01.0-SpacesScreen-Empty" transform="translate(-144.000000, -319.000000)" fill="#FFFFFF" fill-rule="nonzero" stroke="#355F91" stroke-width="3">
            <g id="stack" transform="translate(146.000000, 321.000000)">
                <path d="M94.9090909,65.7403636 L49.0909091,39.5585455 C48.4203019,39.1754837 47.5971526,39.1754837 46.9265455,39.5585455 L1.10836364,65.7403636 C0.603627487,66.0278859 0.234384233,66.5048127 0.0824444096,67.0654747 C-0.0694954143,67.6261368 0.00841337349,68.224242 0.298909091,68.7272727 C0.490669642,69.0652447 0.770391619,69.3449667 1.10836364,69.5367273 L46.9265455,95.7185455 C47.5971526,96.1016072 48.4203019,96.1016072 49.0909091,95.7185455 L94.9090909,69.5367273 C95.5883689,69.1481269 96.0074963,68.4254874 96.0074963,67.6429091 C96.0074963,66.8603308 95.5883689,66.1376913 94.9090909,65.7490909 L94.9090909,65.7403636 Z" id="Path"></path>
                <path d="M94.9090909,46.1061818 L49.0909091,19.9243636 C48.4203019,19.5413019 47.5971526,19.5413019 46.9265455,19.9243636 L1.10836364,46.1061818 C0.429085637,46.4947822 0.00995824417,47.2174217 0.00995824417,48 C0.00995824417,48.7825783 0.429085637,49.5052178 1.10836364,49.8938182 L46.9265455,76.0756364 C47.5971526,76.4586981 48.4203019,76.4586981 49.0909091,76.0756364 L94.9090909,49.8938182 C95.4114583,49.6063167 95.7789964,49.1309766 95.9308087,48.5724221 C96.0826209,48.0138676 96.0071954,47.4178792 95.7185455,46.9156364 C95.5267849,46.5776643 95.2470629,46.2979424 94.9090909,46.1061818 Z" id="Path"></path>
                <path d="M94.9090909,26.4698182 L49.0909091,0.288 C48.4203019,-0.0950617579 47.5971526,-0.0950617579 46.9265455,0.288 L1.10836364,26.4698182 C0.429085637,26.8584186 0.00995824417,27.581058 0.00995824417,28.3636364 C0.00995824417,29.1462147 0.429085637,29.8688542 1.10836364,30.2574545 L46.9265455,56.4392727 C47.5971526,56.8223345 48.4203019,56.8223345 49.0909091,56.4392727 L94.9090909,30.2574545 C95.5883689,29.8688542 96.0074963,29.1462147 96.0074963,28.3636364 C96.0074963,27.581058 95.5883689,26.8584186 94.9090909,26.4698182 Z" id="Path"></path>
            </g>
        </g>
    </g>
</svg>
